<svg width="28" height="29" viewBox="0 0 28 29" fill="none" xmlns="http://www.w3.org/2000/svg">
<g clip-path="url(#clip0_9_812)">
<path d="M22.1667 1.20834H5.83333C4.28681 1.21025 2.80415 1.8474 1.71059 2.98002C0.617029 4.11264 0.0018525 5.64824 0 7.25L0 21.75C0.0018525 23.3518 0.617029 24.8874 1.71059 26.02C2.80415 27.1526 4.28681 27.7898 5.83333 27.7917H22.1667C23.7132 27.7898 25.1958 27.1526 26.2894 26.02C27.383 24.8874 27.9981 23.3518 28 21.75V7.25C27.9981 5.64824 27.383 4.11264 26.2894 2.98002C25.1958 1.8474 23.7132 1.21025 22.1667 1.20834V1.20834ZM5.83333 3.625H22.1667C22.8652 3.62643 23.5474 3.84433 24.1254 4.25068C24.7035 4.65703 25.1508 5.23323 25.41 5.90513L16.4757 15.1598C15.8182 15.838 14.928 16.2188 14 16.2188C13.072 16.2188 12.1818 15.838 11.5243 15.1598L2.59 5.90513C2.84917 5.23323 3.29655 4.65703 3.87456 4.25068C4.45256 3.84433 5.13475 3.62643 5.83333 3.625V3.625ZM22.1667 25.375H5.83333C4.90508 25.375 4.01484 24.9931 3.35846 24.3133C2.70208 23.6334 2.33333 22.7114 2.33333 21.75V9.0625L9.87467 16.8683C10.9697 17.9996 12.4533 18.635 14 18.635C15.5467 18.635 17.0303 17.9996 18.1253 16.8683L25.6667 9.0625V21.75C25.6667 22.7114 25.2979 23.6334 24.6415 24.3133C23.9852 24.9931 23.0949 25.375 22.1667 25.375Z" fill="#41008B"/>
</g>
<defs>
<clipPath id="clip0_9_812">
<rect width="28" height="29" fill="white"/>
</clipPath>
</defs>
</svg>
