<svg width="28" height="29" viewBox="0 0 28 29" fill="none" xmlns="http://www.w3.org/2000/svg">
<g clip-path="url(#clip0_9_814)">
<path d="M22.1666 10.179V8.45833C22.1666 6.21504 21.3062 4.06363 19.7746 2.47739C18.2431 0.891144 16.1659 0 13.9999 0C11.834 0 9.75676 0.891144 8.22521 2.47739C6.69367 4.06363 5.83325 6.21504 5.83325 8.45833V10.179C4.79417 10.6487 3.90976 11.4218 3.28817 12.4038C2.66657 13.3858 2.33474 14.5341 2.33325 15.7083V22.9583C2.3351 24.5601 2.95028 26.0957 4.04384 27.2283C5.1374 28.3609 6.62006 28.9981 8.16659 29H19.8333C21.3798 28.9981 22.8624 28.3609 23.956 27.2283C25.0496 26.0957 25.6647 24.5601 25.6666 22.9583V15.7083C25.6651 14.5341 25.3333 13.3858 24.7117 12.4038C24.0901 11.4218 23.2057 10.6487 22.1666 10.179ZM8.16659 8.45833C8.16659 6.85598 8.78117 5.31926 9.87513 4.18623C10.9691 3.0532 12.4528 2.41667 13.9999 2.41667C15.547 2.41667 17.0307 3.0532 18.1247 4.18623C19.2187 5.31926 19.8333 6.85598 19.8333 8.45833V9.66667H8.16659V8.45833ZM23.3333 22.9583C23.3333 23.9197 22.9645 24.8418 22.3081 25.5216C21.6518 26.2014 20.7615 26.5833 19.8333 26.5833H8.16659C7.23833 26.5833 6.34809 26.2014 5.69171 25.5216C5.03533 24.8418 4.66659 23.9197 4.66659 22.9583V15.7083C4.66659 14.7469 5.03533 13.8249 5.69171 13.1451C6.34809 12.4653 7.23833 12.0833 8.16659 12.0833H19.8333C20.7615 12.0833 21.6518 12.4653 22.3081 13.1451C22.9645 13.8249 23.3333 14.7469 23.3333 15.7083V22.9583Z" fill="#41008B"/>
<path d="M13.9999 16.9167C13.6905 16.9167 13.3938 17.044 13.175 17.2706C12.9562 17.4972 12.8333 17.8045 12.8333 18.125V20.5417C12.8333 20.8621 12.9562 21.1695 13.175 21.3961C13.3938 21.6227 13.6905 21.75 13.9999 21.75C14.3093 21.75 14.6061 21.6227 14.8249 21.3961C15.0437 21.1695 15.1666 20.8621 15.1666 20.5417V18.125C15.1666 17.8045 15.0437 17.4972 14.8249 17.2706C14.6061 17.044 14.3093 16.9167 13.9999 16.9167Z" fill="#41008B"/>
</g>
<defs>
<clipPath id="clip0_9_814">
<rect width="28" height="29" fill="white"/>
</clipPath>
</defs>
</svg>
