<svg width="28" height="29" viewBox="0 0 28 29" fill="none" xmlns="http://www.w3.org/2000/svg">
<g clip-path="url(#clip0_9_804)">
<path d="M14 14.5C15.3845 14.5 16.7378 14.0748 17.889 13.2782C19.0401 12.4815 19.9373 11.3492 20.4672 10.0245C20.997 8.69969 21.1356 7.24196 20.8655 5.8356C20.5954 4.42923 19.9287 3.13741 18.9497 2.12348C17.9708 1.10954 16.7235 0.419049 15.3656 0.139306C14.0078 -0.140437 12.6003 0.00313751 11.3212 0.551873C10.0421 1.10061 8.94888 2.02986 8.17971 3.22212C7.41054 4.41437 7 5.81609 7 7.25C7.00185 9.17223 7.73995 11.0152 9.0523 12.3744C10.3647 13.7336 12.1441 14.4981 14 14.5ZM14 2.41667C14.923 2.41667 15.8252 2.70014 16.5927 3.23123C17.3601 3.76232 17.9582 4.51719 18.3114 5.40036C18.6646 6.28354 18.7571 7.25536 18.577 8.19294C18.3969 9.13051 17.9525 9.99173 17.2998 10.6677C16.6472 11.3436 15.8157 11.804 14.9104 11.9905C14.0052 12.177 13.0669 12.0812 12.2141 11.7154C11.3614 11.3496 10.6326 10.7301 10.1198 9.93526C9.60703 9.14042 9.33333 8.20594 9.33333 7.25C9.33333 5.96812 9.825 4.73874 10.7002 3.83232C11.5753 2.92589 12.7623 2.41667 14 2.41667Z" fill="#41008B"/>
<path d="M14 16.9167C11.2162 16.9199 8.54725 18.0666 6.57879 20.1054C4.61033 22.1442 3.50309 24.9084 3.5 27.7917C3.5 28.1121 3.62292 28.4195 3.84171 28.6461C4.0605 28.8727 4.35725 29 4.66667 29C4.97609 29 5.27283 28.8727 5.49162 28.6461C5.71042 28.4195 5.83333 28.1121 5.83333 27.7917C5.83333 25.5484 6.69375 23.397 8.22529 21.8107C9.75684 20.2245 11.8341 19.3333 14 19.3333C16.1659 19.3333 18.2432 20.2245 19.7747 21.8107C21.3063 23.397 22.1667 25.5484 22.1667 27.7917C22.1667 28.1121 22.2896 28.4195 22.5084 28.6461C22.7272 28.8727 23.0239 29 23.3333 29C23.6428 29 23.9395 28.8727 24.1583 28.6461C24.3771 28.4195 24.5 28.1121 24.5 27.7917C24.4969 24.9084 23.3897 22.1442 21.4212 20.1054C19.4527 18.0666 16.7838 16.9199 14 16.9167Z" fill="#41008B"/>
</g>
<defs>
<clipPath id="clip0_9_804">
<rect width="28" height="29" fill="white"/>
</clipPath>
</defs>
</svg>
