<svg width="28" height="29" viewBox="0 0 28 29" fill="none" xmlns="http://www.w3.org/2000/svg">
<g clip-path="url(#clip0_9_800)">
<path d="M15.1667 1.20833C15.1667 0.887863 15.2896 0.580519 15.5084 0.353912C15.7272 0.127306 16.0239 -5.67408e-07 16.3333 -5.67408e-07C19.4265 0.00351761 22.392 1.27771 24.5792 3.54301C26.7664 5.80831 27.9966 8.87971 28 12.0833C28 12.4038 27.8771 12.7111 27.6583 12.9378C27.4395 13.1644 27.1428 13.2917 26.8333 13.2917C26.5239 13.2917 26.2272 13.1644 26.0084 12.9378C25.7896 12.7111 25.6667 12.4038 25.6667 12.0833C25.6639 9.52046 24.6797 7.06337 22.9299 5.25115C21.1802 3.43892 18.8078 2.41954 16.3333 2.41667C16.0239 2.41667 15.7272 2.28936 15.5084 2.06275C15.2896 1.83615 15.1667 1.5288 15.1667 1.20833ZM16.3333 7.25C17.571 7.25 18.758 7.75922 19.6332 8.66565C20.5083 9.57208 21 10.8015 21 12.0833C21 12.4038 21.1229 12.7111 21.3417 12.9378C21.5605 13.1644 21.8572 13.2917 22.1667 13.2917C22.4761 13.2917 22.7728 13.1644 22.9916 12.9378C23.2104 12.7111 23.3333 12.4038 23.3333 12.0833C23.3315 10.1611 22.5934 8.31815 21.281 6.95893C19.9687 5.59971 18.1893 4.83525 16.3333 4.83333C16.0239 4.83333 15.7272 4.96064 15.5084 5.18725C15.2896 5.41385 15.1667 5.7212 15.1667 6.04167C15.1667 6.36214 15.2896 6.66948 15.5084 6.89609C15.7272 7.12269 16.0239 7.25 16.3333 7.25ZM26.9418 20.2263C27.6179 20.9285 27.9976 21.8797 27.9976 22.8713C27.9976 23.863 27.6179 24.8142 26.9418 25.5164L25.8802 26.7839C16.3252 36.2585 -6.9265 12.1824 2.08017 2.25475L3.42184 1.04642C4.10057 0.365734 5.01076 -0.0108163 5.95549 -0.00177097C6.90023 0.00727433 7.80354 0.401188 8.47 1.09475C8.50617 1.13221 10.668 4.04067 10.668 4.04067C11.3095 4.73863 11.6666 5.66579 11.665 6.6294C11.6635 7.59302 11.3035 8.51896 10.6598 9.21475L9.30884 10.9741C10.0565 12.8556 11.1557 14.5655 12.5434 16.0057C13.9311 17.4458 15.5799 18.5878 17.395 19.366L19.1042 17.9583C19.7761 17.2921 20.6699 16.9197 21.6 16.9183C22.5301 16.917 23.425 17.2868 24.0987 17.951C24.0987 17.951 26.9057 20.1888 26.9418 20.2263ZM25.3365 21.9832C25.3365 21.9832 22.5447 19.7587 22.5085 19.7212C22.2682 19.4744 21.9434 19.3359 21.6049 19.3359C21.2664 19.3359 20.9417 19.4744 20.7013 19.7212C20.6698 19.755 18.3167 21.6968 18.3167 21.6968C18.1581 21.8276 17.9694 21.9133 17.7691 21.9455C17.5688 21.9777 17.3639 21.9553 17.1745 21.8805C14.823 20.9737 12.6872 19.5541 10.9116 17.7179C9.13609 15.8816 7.76231 13.6716 6.88334 11.2375C6.8054 11.0387 6.77999 10.8219 6.80972 10.6096C6.83946 10.3972 6.92325 10.1969 7.0525 10.0292C7.0525 10.0292 8.92734 7.59075 8.95884 7.55933C9.19715 7.3104 9.33086 6.97404 9.33086 6.62348C9.33086 6.27292 9.19715 5.93656 8.95884 5.68762C8.92267 5.65137 6.77484 2.75742 6.77484 2.75742C6.53089 2.53086 6.21251 2.40953 5.88496 2.41829C5.55741 2.42706 5.2455 2.56525 5.01317 2.80454L3.6715 4.01287C-2.91083 12.2102 17.2387 31.9217 24.1745 25.1333L25.2373 23.8646C25.4864 23.6256 25.636 23.2958 25.6545 22.9447C25.673 22.5936 25.559 22.2488 25.3365 21.9832Z" fill="#41008B"/>
</g>
<defs>
<clipPath id="clip0_9_800">
<rect width="28" height="29" fill="white"/>
</clipPath>
</defs>
</svg>
